# xmcd
#
# Track frame offsets:
# 150
# 19863
# 42363
# 65238
# 87063
# 107613
# 121563
# 143913
# 153063
# 168363
# 180663
# 201663
#
# Disc length: 2941 seconds
#
#
# Revision: 0
# Processed by: cddbd v1.5.2PL0 Copyright (c) Steve Scherf et al.
# Submitted via: FreeRIP 2.951 
#
DISCID=9c0b7b0c
DTITLE=Cheryl Porter - Falling In Love
DYEAR=2005
DGENRE=Blues
TTITLE0=The summer knows
TTITLE1=Bewitched
TTITLE2=What are you doing the rest of your life
TTITLE3=You've changed
TTITLE4=Never let me go
TTITLE5=No moon at all
TTITLE6=You don't know what love is
TTITLE7=One hand, one heart
TTITLE8=More than you know
TTITLE9=Someone to watch over me
TTITLE10=Smile
TTITLE11=The sage
EXTD=
EXTT0=
EXTT1=
EXTT2=
EXTT3=
EXTT4=
EXTT5=
EXTT6=
EXTT7=
EXTT8=
EXTT9=
EXTT10=
EXTT11=
PLAYORDER=
